<?xml version="1.0" encoding="UTF-8"?>
<svg id="Layer_2" data-name="Layer 2" xmlns="http://www.w3.org/2000/svg" viewBox="0 0 419.55 486.65">
  <defs>
    <style>
      .cls-1 {
        fill: none;
        stroke: #000;
        stroke-miterlimit: 10;
        stroke-width: 5px;
      }
    </style>
  </defs>
  <g id="Layer_2-2" data-name="Layer 2">
    <path class="cls-1" d="M114.95,1.54c-23.47,35.1-12.37,89.13-12.37,89.13,0,0-91.76,148.3,100.87,205.49,0,0-35.35,22.41-40.1,69.44-.75,7.45-6.82,13.19-14.29,13.54-14.53,.69-36.95-2.56-48.91-26.13-17.5-34.49-20.81-49.46-67.84-48.64-18.07,.47-30.81,9.16-30.81,23.73,0,13.21,11.22,20.2,32.95,19.5,6.39-.21,15.7,6.44,17.51,12.57,6.91,23.43,11.79,75.88,110.87,73.44v51.54h172.54v-120.63s-.97-38.38-36.99-68.37c0,0,176.81-47.32,100.62-205.49,0,0,8.79-54.02-10.44-89.11,0,0-31.25-1.64-75.12,35.09,0,0-65.8-22.08-126.66,0C145.1,5.93,144.38,2.81,114.95,1.54Z"/>
  </g>
</svg>