<?xml version="1.0" encoding="UTF-8"?>
<svg id="Layer_2" data-name="Layer 2" xmlns="http://www.w3.org/2000/svg" viewBox="0 0 948.58 767.89">
  <defs>
    <style>
      .cls-1 {
        fill: none;
        stroke: #000;
        stroke-miterlimit: 10;
        stroke-width: 3px;
      }
    </style>
  </defs>
  <g id="Layer_1-2" data-name="Layer 1">
    <path class="cls-1" d="M72.95,37.89S210.45,229.39,467.95,239.89c0,0-25-103,49-179s195-83,280,2c0,0,75-15,121-45,0,0-7,57-83,106,0,0,44-3,110-30,0,0-41.5,68.5-95.5,99.5,0,0,4,34-7,112-8.99,63.73-50.12,174.67-101,242-38.57,51.04-88.99,98.27-135.5,130.5-120.5,83.5-378.5,147.5-599.5,1.5,0,0,150,22,284.5-80.5,0,0-128,9-179-133,0,0,47,9,87-5,0,0-152-23-154-190,0,0,30,23,87,24,0,0-147.5-92.5-59-257Z"/>
  </g>
</svg>